<?xml version="1.0" encoding="UTF-8"?>
<svg version="1.1" xmlns="http://www.w3.org/2000/svg" width="288" height="304">
<path d="M0 0 C95.04 0 190.08 0 288 0 C288 100.32 288 200.64 288 304 C192.96 304 97.92 304 0 304 C0 203.68 0 103.36 0 0 Z " fill="#010000" transform="translate(0,0)"/>
<path d="M0 0 C0.825 0.5775 1.65 1.155 2.5 1.75 C4.13343591 2.44649044 5.78108494 3.11007739 7.4375 3.75 C11.25168926 5.2323456 14.88047433 6.84498649 18.5 8.75 C18.5 9.41 18.5 10.07 18.5 10.75 C19.19480469 10.97300781 19.88960938 11.19601563 20.60546875 11.42578125 C24.17910582 13.06068404 26.88977307 15.36730817 29.8125 17.9375 C30.38790527 18.43725342 30.96331055 18.93700684 31.55615234 19.4519043 C32.69729423 20.4433856 33.83667528 21.43689785 34.97412109 22.43261719 C36.2055046 23.49574445 37.46751526 24.5233368 38.73828125 25.5390625 C47.08164851 32.27594289 53.86095002 41.67218355 59.5 50.75 C59.5 51.41 59.5 52.07 59.5 52.75 C58.51 52.75 57.52 52.75 56.5 52.75 C56.5 52.09 56.5 51.43 56.5 50.75 C55.83355469 50.56824219 55.16710937 50.38648438 54.48046875 50.19921875 C47.8203125 48.3828125 41.16015625 46.56640625 34.5 44.75 C34.5 45.41 34.5 46.07 34.5 46.75 C35.015625 46.853125 35.53125 46.95625 36.0625 47.0625 C39.3861963 47.9999528 42.39998666 49.22923874 45.5 50.75 C45.83 51.74 46.16 52.73 46.5 53.75 C47.386875 53.83378906 48.27375 53.91757812 49.1875 54.00390625 C56.40958132 55.63057787 61.9380308 62.45868051 66.125 68.3125 C70.30638203 75.98432343 69.81491599 85.15775551 67.46875 93.3515625 C66.24496293 96.53788616 64.89518505 99.63574766 63.5 102.75 C62.43645685 105.73290617 61.4708449 108.73527111 60.5 111.75 C59.84 111.75 59.18 111.75 58.5 111.75 C58.12875 112.82507813 58.12875 112.82507813 57.75 113.921875 C56.3639789 117.05774775 54.66212175 119.34504167 52.5 122 C51.79875 122.87140625 51.0975 123.7428125 50.375 124.640625 C48.5 126.75 48.5 126.75 46.5 127.75 C46.50112793 126.96463867 46.50225586 126.17927734 46.50341797 125.37011719 C46.49117045 121.74591529 46.43332985 118.1237419 46.375 114.5 C46.37757813 113.26507813 46.38015625 112.03015625 46.3828125 110.7578125 C46.15030312 99.71361692 42.98480313 90.62411849 35.1875 82.5625 C34.40890625 81.75296875 33.6303125 80.9434375 32.828125 80.109375 C32.05984375 79.33078125 31.2915625 78.5521875 30.5 77.75 C29.50226563 76.64398438 29.50226563 76.64398438 28.484375 75.515625 C23.21120697 69.83992506 17.26106251 65.6142357 10.82006836 61.37915039 C5.59110106 57.93220212 5.59110106 57.93220212 4.5 55.75 C-1.25843464 52.85527523 -7.21388891 52.93295277 -13.5 53.75 C-17.27346304 55.21374746 -20.27416125 57.32937061 -23.5 59.75 C-24.44488281 60.41515625 -25.38976562 61.0803125 -26.36328125 61.765625 C-40.89179564 72.24273784 -56.05119076 84.31625399 -59.5 102.75 C-59.94387832 107.14622408 -60.09695142 111.5213162 -60.1875 115.9375 C-60.23874023 117.65163086 -60.23874023 117.65163086 -60.29101562 119.40039062 C-60.37252915 122.18349538 -60.4419867 124.96632336 -60.5 127.75 C-64.97919547 124.32360689 -67.74931218 121.25472462 -70.625 116.3125 C-73.46486838 111.47731135 -73.46486838 111.47731135 -76.63671875 106.859375 C-78.91133253 103.06358345 -79.54608343 99.76214302 -80.1875 95.4375 C-80.55437346 90.71029968 -80.55437346 90.71029968 -82.5 86.75 C-83.48384044 73.52491402 -79.68372315 67.66157257 -71.5 57.75 C-70.8296875 56.89148437 -70.159375 56.03296875 -69.46875 55.1484375 C-60.87869743 44.68357187 -48.6301647 37.33876698 -36.5 31.75 C-41.81170507 32.33554229 -46.04771722 34.10307867 -50.8125 36.375 C-51.56217041 36.72820313 -52.31184082 37.08140625 -53.08422852 37.4453125 C-58.19848172 39.92952093 -62.64068026 42.73634982 -66.93359375 46.5 C-68.5 47.75 -68.5 47.75 -70.5 47.75 C-69.04577894 43.29696149 -66.59398332 40.11007838 -63.5625 36.625 C-62.82616333 35.77349365 -62.82616333 35.77349365 -62.07495117 34.90478516 C-60.56286857 33.174551 -59.03539908 31.45955777 -57.5 29.75 C-56.63890625 28.7909375 -55.7778125 27.831875 -54.890625 26.84375 C-47.62262835 19.17931717 -39.3718931 13.41293731 -30.5 7.75 C-29.60667969 7.17636719 -28.71335938 6.60273438 -27.79296875 6.01171875 C-24.44787847 4.1710643 -21.21791632 3.5692019 -17.5 2.75 C-17.5 2.09 -17.5 1.43 -17.5 0.75 C-12.26904029 -2.03984518 -5.35959539 -2.67979769 0 0 Z " fill="#9D0033" transform="translate(153.5,6.25)"/>
<path d="M0 0 C4.42474794 3.44024152 6.67212586 8.23187189 8.75390625 13.28515625 C18.23510563 33.94168782 35.75348827 54.84430838 55 67 C55 67.33 55 67.66 55 68 C45.66172938 66.999471 37.63808664 64.6074228 29 61 C27.33429637 60.33093076 25.66788971 59.66360088 24 59 C32.3927476 67.84572948 40.64618281 75.49876595 51 82 C47.17032897 83.46120901 44.89183453 82.48911183 41.16796875 81.015625 C39.47510742 80.35433594 39.47510742 80.35433594 37.74804688 79.6796875 C36.57306641 79.20789063 35.39808594 78.73609375 34.1875 78.25 C33.02412109 77.79367188 31.86074219 77.33734375 30.66210938 76.8671875 C26.09777283 75.06950913 21.54358258 73.25835602 17.046875 71.296875 C14.08455895 70.03599176 11.12580785 68.98683743 8.0625 68 C0.15362881 65.40291095 -7.49430613 62.41196295 -15.16796875 59.18359375 C-17.91479504 57.96783574 -17.91479504 57.96783574 -20.55078125 57.28491211 C-23 56 -23 56 -24.21020508 53.44970703 C-24.47728271 52.39638184 -24.74436035 51.34305664 -25.01953125 50.2578125 C-25.31923828 49.10925781 -25.61894531 47.96070313 -25.92773438 46.77734375 C-26.21970703 45.57207031 -26.51167969 44.36679688 -26.8125 43.125 C-27.12380859 41.92746094 -27.43511719 40.72992188 -27.75585938 39.49609375 C-30 30.68722527 -30 30.68722527 -30 26 C-27.41434427 26.96038641 -25.1235133 27.91883412 -22.8125 29.4375 C-19.44731595 31.30704669 -16.10355447 32.24448514 -12.40234375 33.25390625 C-10 34 -10 34 -7.86328125 35.08203125 C-5.48774223 36.25237018 -3.61225658 36.14512537 -1 36 C-3.69566504 34.28457679 -6.24215814 32.90460437 -9.22265625 31.73046875 C-13.41777834 29.95397703 -16.81446279 27.4339526 -20.375 24.625 C-21.00277344 24.15578125 -21.63054687 23.6865625 -22.27734375 23.203125 C-26.78155493 19.68147392 -26.78155493 19.68147392 -27.9140625 16.1484375 C-27.94242188 15.43945312 -27.97078125 14.73046875 -28 14 C-25.31294159 12.41591638 -22.62527171 10.832873 -19.9375 9.25 C-19.18533203 8.8065625 -18.43316406 8.363125 -17.65820312 7.90625 C-16.15915205 7.02369179 -14.65834363 6.14411146 -13.15576172 5.26757812 C-11.76888394 4.45210027 -10.38952326 3.62362717 -9.02001953 2.77929688 C-5.62885533 0.72558248 -4.07963723 0 0 0 Z " fill="#9B0033" transform="translate(89,145)"/>
<path d="M0 0 C4.99105236 1.77459639 9.46684965 4.40358737 14.0625 7 C15.65713228 7.8965804 17.25217056 8.79243915 18.84765625 9.6875 C19.54898682 10.08324219 20.25031738 10.47898438 20.97290039 10.88671875 C22.95853495 11.97722743 24.96711367 13.00080885 27 14 C25.4699112 21.93183966 18.41933136 28.55023622 12 33 C5.61644646 36.43669033 -0.92583516 39.35484539 -8 41 C-2.4972339 41.22011064 1.77580171 40.94388773 7 39 C8.32 39 9.64 39 11 39 C11 38.34 11 37.68 11 37 C17 34 23 31 29 28 C25.91931946 52.57773709 25.91931946 52.57773709 19.3203125 58.33984375 C16.20350249 59.60680678 13.29029537 60.29625261 10 61 C6.30063809 62.2436468 2.65579741 63.63439168 -1 65 C-3.42781699 65.8869741 -5.85623586 66.77230195 -8.28515625 67.65625 C-10.22293202 68.36421557 -12.1604301 69.07293719 -14.09790039 69.78173828 C-15.40921286 70.26115686 -16.72073706 70.73999671 -18.0324707 71.21826172 C-25.03138799 73.77044935 -32.00646719 76.36039084 -38.91088867 79.16015625 C-41.62719305 80.25213791 -44.36974293 81.26093336 -47.125 82.25 C-48.52105469 82.75273437 -48.52105469 82.75273437 -49.9453125 83.265625 C-50.62335938 83.50796875 -51.30140625 83.7503125 -52 84 C-50.73888099 80.21664297 -49.32372257 79.59793712 -46.0625 77.375 C-41.1535611 73.91136477 -36.71112061 70.18598697 -32.30078125 66.11328125 C-30.22220022 64.20409222 -28.10126406 62.37371594 -25.9375 60.5625 C-23.00970985 58.33611003 -23.00970985 58.33611003 -22 56 C-23.07378906 56.54269531 -24.14757812 57.08539063 -25.25390625 57.64453125 C-26.69004949 58.36729615 -28.1262505 59.08994628 -29.5625 59.8125 C-30.26697266 60.16892578 -30.97144531 60.52535156 -31.69726562 60.89257812 C-44.42436887 67.28545487 -44.42436887 67.28545487 -50.9375 67.6875 C-51.89527344 67.75324219 -52.85304687 67.81898438 -53.83984375 67.88671875 C-54.55269531 67.92410156 -55.26554688 67.96148437 -56 68 C-52.72904358 64.62312689 -49.32926723 61.52707737 -45.73510742 58.49829102 C-29.21563343 44.55061069 -13.80291724 26.66800808 -5.9140625 6.1796875 C-4.65157831 3.16914827 -2.61677068 1.85928443 0 0 Z " fill="#9C0033" transform="translate(203,145)"/>
<path d="M0 0 C2.8144083 0.35797299 3.84143361 0.82543788 5.78125 2.9609375 C6.3484375 3.75757812 6.915625 4.55421875 7.5 5.375 C11.27621516 10.6445366 14.63129446 13.40782362 21 15 C26.52912684 15.64137871 30.12890051 14.87837697 35 12 C36.32 11.34 37.64 10.68 39 10 C39 13.3 39 16.6 39 20 C38.34 20 37.68 20 37 20 C36.86722656 20.62648437 36.73445313 21.25296875 36.59765625 21.8984375 C36.42105469 22.71570313 36.24445313 23.53296875 36.0625 24.375 C35.88847656 25.18710938 35.71445313 25.99921875 35.53515625 26.8359375 C35 29 35 29 34 31 C33.34 31 32.68 31 32 31 C31.73574219 31.59039062 31.47148437 32.18078125 31.19921875 32.7890625 C27.02457853 40.48563047 18.72175006 44.11049052 10.8046875 46.890625 C0.44896165 49.91015903 -8.57705122 48.11095102 -18 43 C-27.29844738 36.10465785 -27.29844738 36.10465785 -29 31 C-29.66 31 -30.32 31 -31 31 C-31.27714844 30.30132812 -31.55429688 29.60265625 -31.83984375 28.8828125 C-32.20207031 27.97273438 -32.56429687 27.06265625 -32.9375 26.125 C-33.29714844 25.22007812 -33.65679687 24.31515625 -34.02734375 23.3828125 C-34.94901262 21.03862333 -34.94901262 21.03862333 -36 19 C-36.06950541 17.45976004 -36.08452357 15.91665012 -36.0625 14.375 C-36.05347656 13.55773437 -36.04445313 12.74046875 -36.03515625 11.8984375 C-36.02355469 11.27195312 -36.01195313 10.64546875 -36 10 C-33.76139611 11.07490375 -31.89766826 12.080625 -29.9375 13.625 C-24.7235624 16.06556654 -18.42078237 15.80692746 -13 14 C-11.9790625 12.9790625 -11.9790625 12.9790625 -10.9375 11.9375 C-10.298125 11.298125 -9.65875 10.65875 -9 10 C-8.34 10 -7.68 10 -7 10 C-6.773125 9.46375 -6.54625 8.9275 -6.3125 8.375 C-4.56617944 5.21499137 -2.3597151 2.7323017 0 0 Z " fill="#9C0033" transform="translate(144,112)"/>
<path d="M0 0 C1.134375 0.020625 2.26875 0.04125 3.4375 0.0625 C3.47488281 1.35285156 3.51226562 2.64320313 3.55078125 3.97265625 C3.61647702 5.69013149 3.6829231 7.40757815 3.75 9.125 C3.77255859 9.97255859 3.79511719 10.82011719 3.81835938 11.69335938 C4.04442016 17.01606335 4.42401617 23.04901617 8.4375 27.0625 C10.66347714 21.61519008 10.86402499 16.48462423 11.0625 10.6875 C11.12050781 9.29724609 11.12050781 9.29724609 11.1796875 7.87890625 C11.27337591 5.6069623 11.35909348 3.33501404 11.4375 1.0625 C14.0775 1.0625 16.7175 1.0625 19.4375 1.0625 C19.47488281 2.23425781 19.51226562 3.40601563 19.55078125 4.61328125 C19.89815453 13.4567084 20.48393897 21.62906159 23.4375 30.0625 C23.7675 30.0625 24.0975 30.0625 24.4375 30.0625 C24.63666016 29.01449219 24.63666016 29.01449219 24.83984375 27.9453125 C25.01644531 27.03523438 25.19304687 26.12515625 25.375 25.1875 C25.54902344 24.28257812 25.72304687 23.37765625 25.90234375 22.4453125 C26.4375 20.0625 26.4375 20.0625 27.4375 18.0625 C27.67024209 15.18339412 27.85722757 12.32103505 28 9.4375 C28.06477539 8.23480469 28.06477539 8.23480469 28.13085938 7.0078125 C28.23701457 5.0262489 28.33776855 3.04439729 28.4375 1.0625 C30.7475 1.0625 33.0575 1.0625 35.4375 1.0625 C36.61760555 16.7785088 33.24483076 30.14918099 28.4375 45.0625 C25.4675 45.0625 22.4975 45.0625 19.4375 45.0625 C18.4475 41.1025 17.4575 37.1425 16.4375 33.0625 C15.7775 33.0625 15.1175 33.0625 14.4375 33.0625 C13.7775 37.0225 13.1175 40.9825 12.4375 45.0625 C9.4675 45.0625 6.4975 45.0625 3.4375 45.0625 C-2.19511453 30.36154126 -5.83880124 16.94333402 -4.5625 1.0625 C-3.5625 0.0625 -3.5625 0.0625 0 0 Z " fill="#960031" transform="translate(107.5625,247.9375)"/>
<path d="M0 0 C19 0 19 0 24.1875 3.125 C27.93890502 7.9531972 27.7576283 13.11638497 27.57421875 19.0234375 C27.28998047 20.49683594 27.28998047 20.49683594 27 22 C26.01 22.66 25.02 23.32 24 24 C24.33 24.99 24.66 25.98 25 27 C25.66 27.33 26.32 27.66 27 28 C27 33.94 27 39.88 27 46 C24.36 46 21.72 46 19 46 C18.93941406 45.02417969 18.87882812 44.04835938 18.81640625 43.04296875 C18.73261719 41.77066406 18.64882812 40.49835938 18.5625 39.1875 C18.48128906 37.92292969 18.40007812 36.65835938 18.31640625 35.35546875 C18.12815453 32.00818107 18.12815453 32.00818107 17 29 C14.03 29 11.06 29 8 29 C8 34.61 8 40.22 8 46 C5.36 46 2.72 46 0 46 C0 30.82 0 15.64 0 0 Z " fill="#930030" transform="translate(163,248)"/>
<path d="M0 0 C2.31 0 4.62 0 7 0 C7 1.65 7 3.3 7 5 C7.556875 5.2475 8.11375 5.495 8.6875 5.75 C11.62213077 7.33628691 13.71250653 8.52188208 16 11 C16.42584093 14.04397407 16.29352035 16.94738837 16 20 C13.36 20 10.72 20 8 20 C8.66 21.98 9.32 23.96 10 26 C11.98 26.33 13.96 26.66 16 27 C17.23185743 40.1398126 17.23185743 40.1398126 14.25390625 44.63671875 C12.0625 46.6875 12.0625 46.6875 9.84765625 48.38671875 C7.75025864 50.2180617 7.3723065 51.28748122 7 54 C4.69 54 2.38 54 0 54 C0 52.35 0 50.7 0 49 C-0.59296875 48.88914062 -1.1859375 48.77828125 -1.796875 48.6640625 C-5.48446328 47.55255539 -7.86314556 45.15639936 -10 42 C-10.375 38.125 -10.375 38.125 -10 35 C-7.69 35 -5.38 35 -3 35 C-3 36.32 -3 37.64 -3 39 C-2.34 39 -1.68 39 -1 39 C-1 35.04 -1 31.08 -1 27 C-2.65 26.67 -4.3 26.34 -6 26 C-6.66 25.67 -7.32 25.34 -8 25 C-8 24.34 -8 23.68 -8 23 C-8.66 23 -9.32 23 -10 23 C-11.06311026 12.72326744 -11.06311026 12.72326744 -8.546875 8.64453125 C-6.77070646 6.83477969 -5.16713959 5.31791787 -3 4 C-2.01 4 -1.02 4 0 4 C0 2.68 0 1.36 0 0 Z " fill="#950031" transform="translate(21,244)"/>
<path d="M0 0 C3.63 0 7.26 0 11 0 C12.00818161 2.66384644 13.0086121 5.32990047 14 8 C14.23638184 8.63212402 14.47276367 9.26424805 14.71630859 9.91552734 C19.12053113 22.04397994 19.56398823 33.17866758 19 46 C16.69 46 14.38 46 12 46 C12 41.38 12 36.76 12 32 C8.04 32 4.08 32 0 32 C0 36.29 0 40.58 0 45 C-2.31 45 -4.62 45 -7 45 C-8.06714508 28.73874167 -5.22082172 15.3827783 0 0 Z " fill="#960031" transform="translate(217,248)"/>
<path d="M0 0 C4.45017506 2.22508753 6.29700503 5.07866713 7.98046875 9.6796875 C8.56574239 13.45145096 8.42532759 15.42387868 7 19 C2.84715208 23.58271758 -2.30893705 27.10699194 -7.41772461 30.54296875 C-9.41856066 32.11770794 -9.41856066 32.11770794 -10 36 C-7.03 36 -4.06 36 -1 36 C-1 34.35 -1 32.7 -1 31 C1.97 31 4.94 31 8 31 C8.02685412 33.31243792 8.04632841 35.6249627 8.0625 37.9375 C8.07410156 39.22527344 8.08570313 40.51304687 8.09765625 41.83984375 C8 45 8 45 7 46 C5.07332493 46.08748207 3.14348139 46.10697334 1.21484375 46.09765625 C-0.53989258 46.09282227 -0.53989258 46.09282227 -2.33007812 46.08789062 C-4.17762695 46.07532227 -4.17762695 46.07532227 -6.0625 46.0625 C-7.91584961 46.05573242 -7.91584961 46.05573242 -9.80664062 46.04882812 C-12.87114117 46.03699608 -15.93554721 46.02051173 -19 46 C-21.08023517 31.91713813 -21.08023517 31.91713813 -17.69042969 27.16357422 C-14.38149691 23.91570259 -10.59739593 21.40038465 -6.64257812 19.00488281 C-4.66223886 17.79336729 -2.82707583 16.43028664 -1 15 C-1.37904208 11.70924004 -1.37904208 11.70924004 -3 9 C-4.99958364 8.95919217 -7.00045254 8.95745644 -9 9 C-9.66 11.31 -10.32 13.62 -11 16 C-13.64 16 -16.28 16 -19 16 C-19.57457648 11.97796463 -19.79759379 8.51296142 -17.86328125 4.84375 C-12.98081789 -0.92535925 -7.18447838 -1.65048828 0 0 Z " fill="#960031" transform="translate(275,248)"/>
<path d="M0 0 C3.96 0 7.92 0 12 0 C12.69831246 2.30443113 13.39169487 4.61042357 14.06640625 6.921875 C14.69335656 8.98897477 15.36889681 11.04190211 16.08984375 13.078125 C19.54284543 23.44941829 19.39224743 33.16961276 19 44 C16.69 44 14.38 44 12 44 C12 39.71 12 35.42 12 31 C8.04 31 4.08 31 0 31 C0 35.29 0 39.58 0 44 C-2.31 44 -4.62 44 -7 44 C-7 37.07 -7 30.14 -7 23 C-6.34 23 -5.68 23 -5 23 C-4.89042969 22.26136719 -4.78085937 21.52273438 -4.66796875 20.76171875 C-3.55916098 13.66715195 -1.9966198 6.89741386 0 0 Z " fill="#970031" transform="translate(64,249)"/>
<path d="M0 0 C0.54527344 0.39832031 1.09054688 0.79664063 1.65234375 1.20703125 C6.8829549 4.88187088 11.77284777 7.48939937 18 9 C18.94746094 9.23332031 19.89492187 9.46664062 20.87109375 9.70703125 C29.34001258 10.50000118 38.22909415 4.64670009 45 0 C43.18214048 11.63430091 37.12192642 22.03033918 29.4375 30.75 C28.97859375 31.28786133 28.5196875 31.82572266 28.046875 32.37988281 C25.91136269 34.69743378 24.6635359 35.95929228 21.453125 36.15625 C18.15610574 34.60224092 16.56171757 32.60639175 14.3125 29.75 C13.54550781 28.79609375 12.77851563 27.8421875 11.98828125 26.859375 C10.18288512 24.26300964 9.0162064 21.97797383 8 19 C7.34 19 6.68 19 6 19 C5.32942113 17.2097939 4.6636531 15.41778511 4 13.625 C3.443125 12.12839844 3.443125 12.12839844 2.875 10.6015625 C2 8 2 8 2 6 C1.34 6 0.68 6 0 6 C0 4.02 0 2.04 0 0 Z " fill="#9A0032" transform="translate(123,165)"/>
<path d="M0 0 C0.66 0.33 1.32 0.66 2 1 C0.71034824 2.37562854 -0.62689293 3.70766393 -2 5 C-2.66 5 -3.32 5 -4 5 C-4 9.62 -4 14.24 -4 19 C3.92 19 11.84 19 20 19 C20 15.37 20 11.74 20 8 C18.35 8 16.7 8 15 8 C14.67 9.65 14.34 11.3 14 13 C10.04 13 6.08 13 2 13 C2 11.35 2 9.7 2 8 C2.66 8 3.32 8 4 8 C4 8.99 4 9.98 4 11 C6.97 11 9.94 11 13 11 C13 9.35 13 7.7 13 6 C15.97 6 18.94 6 22 6 C22.02685412 8.31243792 22.04632841 10.6249627 22.0625 12.9375 C22.07410156 14.22527344 22.08570313 15.51304687 22.09765625 16.83984375 C22 20 22 20 21 21 C19.07332493 21.08748207 17.14348139 21.10697334 15.21484375 21.09765625 C14.04501953 21.09443359 12.87519531 21.09121094 11.66992188 21.08789062 C9.82237305 21.07532227 9.82237305 21.07532227 7.9375 21.0625 C6.08415039 21.05573242 6.08415039 21.05573242 4.19335938 21.04882812 C1.12885883 21.03699608 -1.93554721 21.02051173 -5 21 C-5.13517903 18.24835568 -5.23415251 15.50335479 -5.3125 12.75 C-5.35439453 11.97269531 -5.39628906 11.19539063 -5.43945312 10.39453125 C-5.48727455 8.15648863 -5.46976923 6.19040326 -5 4 C-2.48046875 1.453125 -2.48046875 1.453125 0 0 Z " fill="#700024" transform="translate(261,273)"/>
<path d="M0 0 C7.28358209 -0.35820896 7.28358209 -0.35820896 10 1 C11.63983879 4.27967758 11.17845638 7.37138689 11 11 C10.34 11 9.68 11 9 11 C9 11.66 9 12.32 9 13 C6.03 13 3.06 13 0 13 C0 8.71 0 4.42 0 0 Z " fill="#090002" transform="translate(171,256)"/>
<path d="M0 0 C0.66 0 1.32 0 2 0 C3.905247 5.10334017 5.42589023 9.46342706 5 15 C2.36 15 -0.28 15 -3 15 C-2.5547115 9.72684667 -1.91626837 4.98229776 0 0 Z " fill="#1D0009" transform="translate(222,258)"/>
<path d="M0 0 C-2.40398274 3.60597411 -5.1031861 4.84768446 -8.875 6.6875 C-9.50019531 7.00783203 -10.12539062 7.32816406 -10.76953125 7.65820312 C-14.17309401 9.34559312 -16.12387154 10 -20 10 C-21.67225729 10.30404678 -23.34080104 10.63128912 -25 11 C-21.73506505 7.44475023 -17.94299887 5.82926805 -13.625 3.8125 C-12.86960937 3.44447266 -12.11421875 3.07644531 -11.3359375 2.69726562 C-7.44336062 0.86326306 -4.40894535 -0.53574834 0 0 Z " fill="#29000D" transform="translate(118,37)"/>
<path d="M0 0 C-0.33 0.99 -0.66 1.98 -1 3 C-0.34 3.66 0.32 4.32 1 5 C-6.4654395 7.77476512 -13.06714481 8.36801906 -21 8 C-17.98333526 5.98889017 -15.50011273 5.08779834 -12.0625 4 C-8.26452156 2.795189 -3.92238845 0 0 0 Z " fill="#360011" transform="translate(213,179)"/>
<path d="M0 0 C2 1 2 1 3.125 4.3125 C4 8 4 8 4 12 C1.36 12 -1.28 12 -4 12 C-3.33501617 7.61110675 -1.81242323 4.0188515 0 0 Z " fill="#050001" transform="translate(70,261)"/>
<path d="M0 0 C0.66 0 1.32 0 2 0 C2 5.94 2 11.88 2 18 C-0.64 18 -3.28 18 -6 18 C-6 13.38 -6 8.76 -6 4 C-5.67 4 -5.34 4 -5 4 C-5 7.96 -5 11.92 -5 16 C-3.35 16 -1.7 16 0 16 C0 10.72 0 5.44 0 0 Z " fill="#6F0024" transform="translate(188,276)"/>
<path d="M0 0 C2.97 0 5.94 0 9 0 C9 4.62 9 9.24 9 14 C8.67 14 8.34 14 8 14 C8 9.71 8 5.42 8 1 C5.69 1 3.38 1 1 1 C1 2.98 1 4.96 1 7 C-2.96 7 -6.92 7 -11 7 C-11 5.35 -11 3.7 -11 2 C-10.34 2 -9.68 2 -9 2 C-9 2.99 -9 3.98 -9 5 C-6.03 5 -3.06 5 0 5 C0 3.35 0 1.7 0 0 Z " fill="#3A0013" transform="translate(274,279)"/>
<path d="M0 0 C0.66 0.33 1.32 0.66 2 1 C-12.7 17.56666667 -12.7 17.56666667 -17 19 C-14.23457587 12.46354295 -9.05969543 8.00670128 -3.76953125 3.515625 C-1.91655093 1.96792368 -1.91655093 1.96792368 0 0 Z " fill="#80002A" transform="translate(96,50)"/>
<path d="M0 0 C0.66 0.33 1.32 0.66 2 1 C0.27538679 2.92093521 -1.45442609 4.836722 -3.1875 6.75 C-3.67025391 7.28882813 -4.15300781 7.82765625 -4.65039062 8.3828125 C-7.56162205 11.58712091 -10.52706501 14.3841879 -14 17 C-14 14 -14 14 -12.71484375 12.37426758 C-12.12832031 11.80345459 -11.54179688 11.2326416 -10.9375 10.64453125 C-10.30585937 10.02255859 -9.67421875 9.40058594 -9.0234375 8.75976562 C-8.35570313 8.11716797 -7.68796875 7.47457031 -7 6.8125 C-6.33226563 6.15830078 -5.66453125 5.50410156 -4.9765625 4.83007812 C-3.32421559 3.21313865 -1.66528399 1.60359509 0 0 Z " fill="#790028" transform="translate(107,25)"/>
<path d="M0 0 C-1.53218685 3.63061667 -3.7183144 5.9863773 -6.5 8.75 C-7.69109375 9.94882813 -7.69109375 9.94882813 -8.90625 11.171875 C-11 13 -11 13 -13 13 C-11.46781315 9.36938333 -9.2816856 7.0136227 -6.5 4.25 C-5.7059375 3.45078125 -4.911875 2.6515625 -4.09375 1.828125 C-2 0 -2 0 0 0 Z " fill="#26000C" transform="translate(116,77)"/>
<path d="M0 0 C1.258125 0.12375 2.51625 0.2475 3.8125 0.375 C4.87404297 0.47941406 4.87404297 0.47941406 5.95703125 0.5859375 C8 1 8 1 11 3 C11 3.99 11 4.98 11 6 C7.13351728 4.95902388 3.50538557 3.96301592 0 2 C0 1.34 0 0.68 0 0 Z " fill="#23000B" transform="translate(188,51)"/>
<path d="M0 0 C0.66 0.33 1.32 0.66 2 1 C1.34 1.66 0.68 2.32 0 3 C0.66 3.66 1.32 4.32 2 5 C-1.63 6.32 -5.26 7.64 -9 9 C-7.83709195 5.51127585 -6.86032391 4.90023136 -3.9375 2.8125 C-3.20402344 2.28269531 -2.47054687 1.75289062 -1.71484375 1.20703125 C-1.14894531 0.80871094 -0.58304688 0.41039062 0 0 Z " fill="#750026" transform="translate(160,220)"/>
<path d="M0 0 C2.97 1.98 5.94 3.96 9 6 C4.93890631 7.01527342 4.33033162 7.05430484 0.75 5.5625 C0.04359375 5.27503906 -0.6628125 4.98757812 -1.390625 4.69140625 C-1.92171875 4.46324219 -2.4528125 4.23507813 -3 4 C-2.01 3.34 -1.02 2.68 0 2 C0 1.34 0 0.68 0 0 Z " fill="#7E0029" transform="translate(131,221)"/>
<path d="M0 0 C-1.04874998 2.62187494 -1.64931313 3.79371361 -4.125 5.25 C-4.74375 5.4975 -5.3625 5.745 -6 6 C-6.99 5.34 -7.98 4.68 -9 4 C-2.25 0 -2.25 0 0 0 Z " fill="#31000F" transform="translate(181,201)"/>
<path d="M0 0 C0.33 0.99 0.66 1.98 1 3 C2.65 3 4.3 3 6 3 C6.33 2.34 6.66 1.68 7 1 C7 2.32 7 3.64 7 5 C4.36 5 1.72 5 -1 5 C-0.67 3.35 -0.34 1.7 0 0 Z " fill="#23000B" transform="translate(67,268)"/>
<path d="M0 0 C-2 3 -2 3 -4.4375 3.8125 C-7 4 -7 4 -10 2 C-6.49223216 0.39644899 -3.85645121 -0.22036864 0 0 Z " fill="#480017" transform="translate(118,37)"/>
<path d="M0 0 C3.43183318 0.84044894 5.48528134 1.48528134 8 4 C0.57142857 4.28571429 0.57142857 4.28571429 -3 2 C-2.01 1.34 -1.02 0.68 0 0 Z " fill="#4F0019" transform="translate(88,180)"/>
<path d="M0 0 C4.875 1.75 4.875 1.75 6 4 C3.03 3.67 0.06 3.34 -3 3 C-2.01 2.67 -1.02 2.34 0 2 C0 1.34 0 0.68 0 0 Z " fill="#20000A" transform="translate(83,178)"/>
<path d="M0 0 C0.66 0 1.32 0 2 0 C1.25 6.625 1.25 6.625 -1 10 C-0.67 7.69 -0.34 5.38 0 3 C-0.66 2.67 -1.32 2.34 -2 2 C-1.34 1.34 -0.68 0.68 0 0 Z " fill="#6D0023" transform="translate(230,173)"/>
<path d="M0 0 C0.33 0.66 0.66 1.32 1 2 C1.66 2.33 2.32 2.66 3 3 C-1.75 7 -1.75 7 -4 7 C-2.92598892 4.08482708 -2.22189824 2.22189824 0 0 Z " fill="#6A0023" transform="translate(87,47)"/>
<path d="M0 0 C0.99 0.33 1.98 0.66 3 1 C3 4.63 3 8.26 3 12 C0.8008587 7.60171741 0.48144941 4.81449408 0 0 Z " fill="#7E0029" transform="translate(59,171)"/>
<path d="M0 0 C2 0.3125 2 0.3125 4 1 C4.33 1.66 4.66 2.32 5 3 C3.8553125 3.2165625 3.8553125 3.2165625 2.6875 3.4375 C-0.08172908 3.9632594 -0.08172908 3.9632594 -3 5 C-1.125 1.125 -1.125 1.125 0 0 Z " fill="#7B0028" transform="translate(144,112)"/>
<path d="M0 0 C-0.33 0.99 -0.66 1.98 -1 3 C-3.875 3.625 -3.875 3.625 -7 4 C-7.66 3.34 -8.32 2.68 -9 2 C-3.375 0 -3.375 0 0 0 Z " fill="#740025" transform="translate(125,34)"/>
<path d="M0 0 C0.66 0 1.32 0 2 0 C2 1.98 2 3.96 2 6 C1.01 6 0.02 6 -1 6 C-1.042721 4.33388095 -1.04063832 2.66617115 -1 1 C-0.67 0.67 -0.34 0.34 0 0 Z " fill="#4D0019" transform="translate(19,257)"/>
</svg>
