<svg version="1.1" id="Layer_1" xmlns="http://www.w3.org/2000/svg" xmlns:xlink="http://www.w3.org/1999/xlink" x="0px" y="0px"
	 width="100%" viewBox="0 0 430 408" enable-background="new 0 0 430 408" xml:space="preserve">
<path fill="#010000" opacity="1.000000" stroke="none" 
	d="
M287.000000,409.000000 
	C191.333344,409.000000 96.166687,409.000000 1.000026,409.000000 
	C1.000017,273.000031 1.000017,137.000061 1.000009,1.000062 
	C144.333298,1.000041 287.666595,1.000041 430.999908,1.000021 
	C430.999939,136.999939 430.999939,272.999878 430.999969,408.999908 
	C383.166656,409.000000 335.333344,409.000000 287.000000,409.000000 
M183.057892,249.701401 
	C183.430695,249.378998 183.803482,249.056595 184.859848,248.962250 
	C193.232376,252.194382 201.204056,256.840240 212.021927,256.670715 
	C209.809921,254.839905 208.619705,253.807693 207.381287,252.836975 
	C191.906631,240.707596 178.607834,226.619034 168.756790,209.502274 
	C166.272919,205.186432 164.742233,200.272690 161.943558,196.204681 
	C160.071655,193.483810 155.682678,189.365707 154.224182,190.002823 
	C145.497971,193.814758 137.295563,198.825775 128.669540,203.571091 
	C135.969711,214.531921 146.905029,219.609680 157.212433,225.449799 
	C156.797836,226.132706 156.383240,226.815613 155.968628,227.498535 
	C146.426208,223.612228 136.883789,219.725922 126.865974,215.646011 
	C127.115509,217.114624 127.259636,218.530151 127.604233,219.895065 
	C129.315292,226.672562 131.275299,233.394440 132.746262,240.222382 
	C133.547424,243.941330 135.495667,245.785629 138.985031,247.082672 
	C159.569443,254.734131 180.071579,262.606720 200.618454,270.359741 
	C201.540817,270.707794 202.628159,270.618622 203.638657,270.733093 
	C203.788208,270.424866 203.937775,270.116638 204.087326,269.808411 
	C196.910080,263.287537 189.732819,256.766632 183.057892,249.701401 
M258.723999,96.051109 
	C259.504730,96.004036 260.285431,95.956963 261.845825,95.972725 
	C267.542114,97.734238 273.238403,99.495743 279.430450,101.410561 
	C278.994904,100.241623 278.865143,99.582336 278.533600,99.048355 
	C264.335815,76.183357 244.632767,59.857567 219.513321,50.353600 
	C216.190262,49.096313 211.470932,49.564838 208.035645,50.888412 
	C186.180344,59.308994 168.534027,73.401085 154.576355,92.149101 
	C153.888275,93.073341 153.648178,94.331116 152.886322,96.203056 
	C160.875046,92.058640 168.011017,88.356613 175.780350,85.707573 
	C175.972565,86.069267 176.164780,86.430962 175.667877,87.074738 
	C162.317108,95.042358 151.208206,105.409088 142.800308,118.491936 
	C140.979797,121.324692 139.132675,124.860558 139.172852,128.048950 
	C139.390198,145.300156 145.241867,160.643723 156.365341,173.889893 
	C157.419662,175.145401 158.868637,176.069519 161.031967,177.911926 
	C160.816376,174.719177 160.721375,172.914413 160.568817,171.114517 
	C159.102432,153.814255 163.658157,138.638733 177.060989,127.043365 
	C185.227509,119.978149 193.710114,113.214890 202.513504,106.968155 
	C210.356247,101.403076 219.061844,101.534111 226.833511,107.166122 
	C235.575043,113.500961 244.082230,120.242310 252.124573,127.440117 
	C265.549713,139.455490 270.362457,154.874741 268.287781,172.604156 
	C268.105652,174.160492 268.004822,175.726349 267.764648,178.432312 
	C269.594910,176.938416 270.541443,176.347458 271.261108,175.551422 
	C283.407837,162.116165 289.220276,146.146973 289.929932,128.217285 
	C289.998077,126.495590 289.428070,124.581207 288.635468,123.019615 
	C282.721008,111.366997 273.364288,103.465347 261.447876,98.382393 
	C260.172241,97.838280 259.105072,96.805511 258.723999,96.051109 
M292.907074,200.685608 
	C287.952057,197.936584 282.998077,195.185699 278.041779,192.439011 
	C271.239288,188.669250 267.992096,189.548325 264.883209,196.713760 
	C254.864807,219.804459 238.785843,237.942139 219.226181,253.305145 
	C218.125305,254.169830 217.112595,255.146759 216.058853,256.071442 
	C227.427719,256.591553 236.838562,251.485947 246.314148,246.591309 
	C246.629288,247.078552 246.944443,247.565796 247.259598,248.053040 
	C238.830765,255.540024 230.401947,263.027008 221.235901,271.168823 
	C223.226440,270.808868 224.360748,270.769073 225.372467,270.396484 
	C246.795547,262.506714 268.212158,254.599243 289.598755,246.611374 
	C290.904114,246.123840 292.676880,245.154175 293.000732,244.048218 
	C295.459656,235.651108 297.611450,227.164017 299.858948,218.704971 
	C299.510620,218.348801 299.162262,217.992645 298.813904,217.636475 
	C290.372528,223.892319 281.336700,228.454178 270.878540,229.021317 
	C272.196686,227.432968 273.797668,226.601990 275.424164,225.824493 
	C283.540344,221.944763 290.408386,216.554779 295.579834,209.131119 
	C298.994141,204.229828 298.955658,204.153641 292.907074,200.685608 
M222.214081,165.332504 
	C220.516403,163.287109 218.672653,161.343933 217.154022,159.173279 
	C214.640213,155.580200 212.351151,155.562073 209.896957,159.165726 
	C208.868561,160.675766 207.789719,162.169617 206.581360,163.536011 
	C198.320053,172.877625 188.041672,174.119919 177.889175,167.082016 
	C177.693771,166.946548 177.276459,167.131165 176.969391,167.165695 
	C174.676590,176.469223 181.500626,190.421585 192.127609,196.859146 
	C208.614563,206.846481 220.943604,206.538132 237.556732,194.920837 
	C246.898697,188.388123 252.504807,174.595383 249.720413,166.643402 
	C240.445557,175.010391 231.497238,172.620987 222.214081,165.332504 
M187.553589,296.145142 
	C187.548370,304.658569 188.148499,313.278839 183.225708,321.551086 
	C179.089828,313.711487 178.752045,305.840454 179.032013,297.841583 
	C179.124725,295.192841 179.550735,292.271301 175.311508,292.389832 
	C171.375427,292.499878 171.613907,295.166809 171.334106,297.935577 
	C170.030472,310.835480 175.166199,322.463287 178.566147,334.401367 
	C178.948257,335.743011 181.783005,337.165222 183.456955,337.137421 
	C185.081009,337.110443 187.237411,335.611420 188.150421,334.134705 
	C189.526642,331.908752 190.024902,329.139954 190.896362,326.601929 
	C192.890076,329.378357 193.357910,332.246094 194.717331,334.598541 
	C195.498138,335.949738 197.706665,337.127350 199.305191,337.170471 
	C200.890930,337.213257 203.590775,336.067444 203.961197,334.872314 
	C207.841095,322.354645 212.579330,309.967957 211.180756,296.415283 
	C210.915039,293.840332 210.398987,292.421448 207.501602,292.362305 
	C204.525040,292.301605 203.750641,293.864594 203.747726,296.376465 
	C203.743866,299.706604 204.119598,303.097412 203.619705,306.352783 
	C202.848022,311.378235 201.472504,316.310913 200.353073,321.282959 
	C199.868546,321.205170 199.384033,321.127380 198.899506,321.049622 
	C198.526291,320.165436 197.934433,319.309814 197.814529,318.392517 
	C196.873154,311.191162 196.118668,303.963898 195.064423,296.780121 
	C194.845078,295.285583 193.907593,293.086914 192.793625,292.709167 
	C190.751755,292.016754 187.936905,291.689728 187.553589,296.145142 
M103.323143,298.459808 
	C100.825989,295.261688 98.658447,291.694000 95.678986,289.036682 
	C94.380669,287.878723 90.627686,287.613464 89.362144,288.638123 
	C85.996506,291.363129 83.334618,294.973236 80.471474,298.299042 
	C76.795891,302.568573 78.054085,310.152893 82.819496,312.836304 
	C88.872627,316.244781 89.740921,318.662720 87.387009,325.516998 
	C86.287750,324.469238 85.304878,322.765137 84.047325,322.529999 
	C82.511398,322.242798 79.339508,323.119202 79.315170,323.612762 
	C79.192978,326.091125 79.148849,329.080963 80.416954,331.010895 
	C82.804062,334.643799 85.792274,338.076813 89.193031,340.750305 
	C90.509056,341.784882 94.152908,341.284973 95.792107,340.136536 
	C98.064682,338.544342 99.710747,335.831482 101.139137,333.321869 
	C102.690186,330.596741 104.253387,327.656372 104.795464,324.628052 
	C105.750801,319.291046 105.050171,314.350891 98.648346,312.335175 
	C97.733902,312.047241 97.031166,310.406555 96.735672,309.261536 
	C96.650642,308.932037 98.266190,307.815582 99.216064,307.623352 
	C105.528976,306.345856 106.104790,305.350464 103.323143,298.459808 
M238.985168,327.658875 
	C239.072083,324.442444 238.057358,320.632446 243.595169,320.978394 
	C248.141342,321.262360 249.886597,322.907654 250.024216,327.946381 
	C250.078796,329.944550 249.571304,332.125122 250.224564,333.887177 
	C250.748932,335.301544 252.541962,336.916046 253.954468,337.109467 
	C255.002396,337.252960 257.410461,335.221375 257.375000,334.223999 
	C257.185547,328.894714 259.348022,323.219666 255.432907,318.275024 
	C254.970718,317.691315 255.631317,316.224915 255.759628,315.166260 
	C256.325500,310.497650 258.388367,305.310150 257.008026,301.312195 
	C255.746933,297.659637 251.175201,294.306519 247.284439,292.660065 
	C243.891541,291.224304 239.381256,292.060516 235.431915,292.498688 
	C233.954941,292.662537 231.498077,294.512939 231.473282,295.638123 
	C231.190750,308.460602 231.190094,321.293793 231.473297,334.116180 
	C231.497665,335.219299 234.002731,336.921600 235.508820,337.108246 
	C236.513397,337.232727 238.325058,335.354706 238.808319,334.022186 
	C239.397186,332.398376 238.971329,330.406586 238.985168,327.658875 
M337.491516,337.396667 
	C338.991150,337.396759 340.490814,337.398346 341.990448,337.396729 
	C350.322266,337.387848 350.853699,336.976135 350.239410,328.639099 
	C350.111511,326.903564 348.801392,324.413300 347.379547,323.804626 
	C345.016083,322.792877 343.444336,324.156982 342.445557,327.035248 
	C341.979309,328.378754 338.506409,329.031830 336.312897,329.290344 
	C334.999878,329.445160 333.525635,328.232147 332.123810,327.633942 
	C333.131073,326.038269 333.843109,324.107513 335.201660,322.910614 
	C339.073242,319.499695 343.250854,316.439301 347.227325,313.143585 
	C351.246521,309.812439 351.474823,302.018036 348.308350,297.861877 
	C342.167053,289.801117 331.382690,290.108704 325.760254,298.650116 
	C324.547119,300.493103 324.534180,303.275696 324.492859,305.634674 
	C324.482605,306.220123 326.945251,307.621674 327.533722,307.299744 
	C329.286316,306.341156 330.565765,304.561340 332.230347,303.386047 
	C333.998444,302.137634 335.961243,300.480774 337.904572,300.388885 
	C339.365875,300.319794 341.924927,302.251190 342.190002,303.637238 
	C342.499634,305.256195 341.306580,307.749359 339.960266,308.988098 
	C335.922241,312.703491 331.335022,315.821747 327.294891,319.535126 
	C325.761108,320.944855 324.373932,323.282532 324.218567,325.297424 
	C323.286377,337.388000 323.413055,337.397766 335.512573,337.395752 
	C335.845825,337.395691 336.179077,337.396088 337.491516,337.396667 
M124.981445,329.384888 
	C124.987595,330.717133 125.078217,332.055359 124.983711,333.380432 
	C124.723351,337.031189 127.033348,337.569183 129.793808,337.241058 
	C133.608887,336.787598 132.551285,333.668152 132.630386,331.372284 
	C132.860809,324.683929 133.464951,324.204437 139.723923,324.510468 
	C145.324524,324.784302 143.482712,328.882202 143.787704,331.835419 
	C144.046295,334.339325 143.690933,337.160553 147.334778,337.293304 
	C151.331665,337.438904 150.988724,334.461578 151.276886,331.753571 
	C152.648026,318.868042 147.799377,307.167358 144.195923,295.276428 
	C143.775345,293.888580 140.679214,292.529022 138.841309,292.552490 
	C136.576523,292.581451 132.729706,293.614563 132.329956,295.007019 
	C129.182022,305.972290 124.066666,316.570526 124.981445,329.384888 
M296.490631,329.422180 
	C296.498169,330.087677 296.506744,330.753143 296.513000,331.418640 
	C296.539703,334.266998 296.103729,337.442261 300.512817,337.291321 
	C304.642181,337.149963 303.738464,334.056366 304.006622,331.495941 
	C305.336761,318.794403 300.271912,307.334808 297.203217,295.476868 
	C296.231171,291.720703 293.383698,292.428253 290.827576,292.384918 
	C288.200836,292.340302 285.470642,291.945679 284.514435,295.619263 
	C282.880646,301.896149 280.449463,308.007355 279.312286,314.359863 
	C278.182281,320.672424 278.030518,327.193970 277.947968,333.630280 
	C277.932373,334.846771 280.259949,337.066132 281.491486,337.055786 
	C282.755402,337.045135 284.379181,335.061523 285.135895,333.579132 
	C285.747223,332.381622 285.342529,330.645020 285.319366,329.148621 
	C285.278931,326.538025 285.828888,324.343109 289.078888,324.603424 
	C292.041962,324.840820 296.272614,322.922272 296.490631,329.422180 
M210.667267,243.695801 
	C212.733932,246.099304 214.781754,245.636200 216.431122,243.361404 
	C221.867798,235.863129 227.399475,228.418320 232.447525,220.661972 
	C234.249008,217.893967 234.774200,214.295334 235.881958,211.075836 
	C235.635025,210.562836 235.388092,210.049850 235.141159,209.536850 
	C220.463593,222.569687 205.876816,222.245361 191.256973,209.777893 
	C194.103195,223.474884 200.579208,234.248154 210.667267,243.695801 
z"/>
<path fill="#9E0034" opacity="1.000000" stroke="none" 
	d="
M175.147003,84.654587 
	C168.011017,88.356613 160.875046,92.058640 152.886322,96.203056 
	C153.648178,94.331116 153.888275,93.073341 154.576355,92.149101 
	C168.534027,73.401085 186.180344,59.308994 208.035645,50.888412 
	C211.470932,49.564838 216.190262,49.096313 219.513321,50.353600 
	C244.632767,59.857567 264.335815,76.183357 278.533600,99.048355 
	C278.865143,99.582336 278.994904,100.241623 279.430450,101.410561 
	C273.238403,99.495743 267.542114,97.734238 261.194824,95.692932 
	C256.579651,93.137283 252.396103,92.919479 248.140778,93.375130 
	C248.072983,93.933136 248.005188,94.491142 247.937393,95.049156 
	C251.271988,95.365913 254.606598,95.682671 257.941193,95.999435 
	C259.105072,96.805511 260.172241,97.838280 261.447876,98.382393 
	C273.364288,103.465347 282.721008,111.366997 288.635468,123.019615 
	C289.428070,124.581207 289.998077,126.495590 289.929932,128.217285 
	C289.220276,146.146973 283.407837,162.116165 271.261108,175.551422 
	C270.541443,176.347458 269.594910,176.938416 267.764648,178.432312 
	C268.004822,175.726349 268.105652,174.160492 268.287781,172.604156 
	C270.362457,154.874741 265.549713,139.455490 252.124573,127.440117 
	C244.082230,120.242310 235.575043,113.500961 226.833511,107.166122 
	C219.061844,101.534111 210.356247,101.403076 202.513504,106.968155 
	C193.710114,113.214890 185.227509,119.978149 177.060989,127.043365 
	C163.658157,138.638733 159.102432,153.814255 160.568817,171.114517 
	C160.721375,172.914413 160.816376,174.719177 161.031967,177.911926 
	C158.868637,176.069519 157.419662,175.145401 156.365341,173.889893 
	C145.241867,160.643723 139.390198,145.300156 139.172852,128.048950 
	C139.132675,124.860558 140.979797,121.324692 142.800308,118.491936 
	C151.208206,105.409088 162.317108,95.042358 176.330597,86.891968 
	C179.630356,85.326180 182.267410,83.943169 184.904449,82.560158 
	C184.612167,81.948715 184.319885,81.337280 184.027603,80.725838 
	C181.067398,82.035416 178.107208,83.345001 175.147003,84.654587 
z"/>
<path fill="#9C0033" opacity="1.000000" stroke="none" 
	d="
M182.555573,250.245758 
	C189.732819,256.766632 196.910080,263.287537 204.087326,269.808411 
	C203.937775,270.116638 203.788208,270.424866 203.638657,270.733093 
	C202.628159,270.618622 201.540817,270.707794 200.618454,270.359741 
	C180.071579,262.606720 159.569443,254.734131 138.985031,247.082672 
	C135.495667,245.785629 133.547424,243.941330 132.746262,240.222382 
	C131.275299,233.394440 129.315292,226.672562 127.604233,219.895065 
	C127.259636,218.530151 127.115509,217.114624 126.865974,215.646011 
	C136.883789,219.725922 146.426208,223.612228 155.968628,227.498535 
	C156.383240,226.815613 156.797836,226.132706 157.212433,225.449799 
	C146.905029,219.609680 135.969711,214.531921 128.669540,203.571091 
	C137.295563,198.825775 145.497971,193.814758 154.224182,190.002823 
	C155.682678,189.365707 160.071655,193.483810 161.943558,196.204681 
	C164.742233,200.272690 166.272919,205.186432 168.756790,209.502274 
	C178.607834,226.619034 191.906631,240.707596 207.381287,252.836975 
	C208.619705,253.807693 209.809921,254.839905 212.021927,256.670715 
	C201.204056,256.840240 193.232376,252.194382 184.407959,248.536041 
	C182.000519,246.750153 180.044998,245.390472 178.089478,244.030792 
	C177.763977,244.495758 177.438477,244.960724 177.112976,245.425690 
	C178.927170,247.032379 180.741379,248.639069 182.555573,250.245758 
z"/>
<path fill="#9C0033" opacity="1.000000" stroke="none" 
	d="
M293.231079,200.863525 
	C298.955658,204.153641 298.994141,204.229828 295.579834,209.131119 
	C290.408386,216.554779 283.540344,221.944763 275.424164,225.824493 
	C273.797668,226.601990 272.196686,227.432968 270.878540,229.021317 
	C281.336700,228.454178 290.372528,223.892319 298.813904,217.636475 
	C299.162262,217.992645 299.510620,218.348801 299.858948,218.704971 
	C297.611450,227.164017 295.459656,235.651108 293.000732,244.048218 
	C292.676880,245.154175 290.904114,246.123840 289.598755,246.611374 
	C268.212158,254.599243 246.795547,262.506714 225.372467,270.396484 
	C224.360748,270.769073 223.226440,270.808868 221.235901,271.168823 
	C230.401947,263.027008 238.830765,255.540024 247.259598,248.053040 
	C246.944443,247.565796 246.629288,247.078552 246.314148,246.591309 
	C236.838562,251.485947 227.427719,256.591553 216.058853,256.071442 
	C217.112595,255.146759 218.125305,254.169830 219.226181,253.305145 
	C238.785843,237.942139 254.864807,219.804459 264.883209,196.713760 
	C267.992096,189.548325 271.239288,188.669250 278.041779,192.439011 
	C282.998077,195.185699 287.952057,197.936584 293.231079,200.863525 
z"/>
<path fill="#9D0034" opacity="1.000000" stroke="none" 
	d="
M222.483826,165.576385 
	C231.497238,172.620987 240.445557,175.010391 249.720413,166.643402 
	C252.504807,174.595383 246.898697,188.388123 237.556732,194.920837 
	C220.943604,206.538132 208.614563,206.846481 192.127609,196.859146 
	C181.500626,190.421585 174.676590,176.469223 176.969391,167.165695 
	C177.276459,167.131165 177.693771,166.946548 177.889175,167.082016 
	C188.041672,174.119919 198.320053,172.877625 206.581360,163.536011 
	C207.789719,162.169617 208.868561,160.675766 209.896957,159.165726 
	C212.351151,155.562073 214.640213,155.580200 217.154022,159.173279 
	C218.672653,161.343933 220.516403,163.287109 222.483826,165.576385 
z"/>
<path fill="#980032" opacity="1.000000" stroke="none" 
	d="
M187.575684,295.720459 
	C187.936905,291.689728 190.751755,292.016754 192.793625,292.709167 
	C193.907593,293.086914 194.845078,295.285583 195.064423,296.780121 
	C196.118668,303.963898 196.873154,311.191162 197.814529,318.392517 
	C197.934433,319.309814 198.526291,320.165436 198.899506,321.049622 
	C199.384033,321.127380 199.868546,321.205170 200.353073,321.282959 
	C201.472504,316.310913 202.848022,311.378235 203.619705,306.352783 
	C204.119598,303.097412 203.743866,299.706604 203.747726,296.376465 
	C203.750641,293.864594 204.525040,292.301605 207.501602,292.362305 
	C210.398987,292.421448 210.915039,293.840332 211.180756,296.415283 
	C212.579330,309.967957 207.841095,322.354645 203.961197,334.872314 
	C203.590775,336.067444 200.890930,337.213257 199.305191,337.170471 
	C197.706665,337.127350 195.498138,335.949738 194.717331,334.598541 
	C193.357910,332.246094 192.890076,329.378357 190.896362,326.601929 
	C190.024902,329.139954 189.526642,331.908752 188.150421,334.134705 
	C187.237411,335.611420 185.081009,337.110443 183.456955,337.137421 
	C181.783005,337.165222 178.948257,335.743011 178.566147,334.401367 
	C175.166199,322.463287 170.030472,310.835480 171.334106,297.935577 
	C171.613907,295.166809 171.375427,292.499878 175.311508,292.389832 
	C179.550735,292.271301 179.124725,295.192841 179.032013,297.841583 
	C178.752045,305.840454 179.089828,313.711487 183.225708,321.551086 
	C188.148499,313.278839 187.548370,304.658569 187.575684,295.720459 
z"/>
<path fill="#960031" opacity="1.000000" stroke="none" 
	d="
M103.574501,298.746765 
	C106.104790,305.350464 105.528976,306.345856 99.216064,307.623352 
	C98.266190,307.815582 96.650642,308.932037 96.735672,309.261536 
	C97.031166,310.406555 97.733902,312.047241 98.648346,312.335175 
	C105.050171,314.350891 105.750801,319.291046 104.795464,324.628052 
	C104.253387,327.656372 102.690186,330.596741 101.139137,333.321869 
	C99.710747,335.831482 98.064682,338.544342 95.792107,340.136536 
	C94.152908,341.284973 90.509056,341.784882 89.193031,340.750305 
	C85.792274,338.076813 82.804062,334.643799 80.416954,331.010895 
	C79.148849,329.080963 79.192978,326.091125 79.315170,323.612762 
	C79.339508,323.119202 82.511398,322.242798 84.047325,322.529999 
	C85.304878,322.765137 86.287750,324.469238 87.387009,325.516998 
	C89.740921,318.662720 88.872627,316.244781 82.819496,312.836304 
	C78.054085,310.152893 76.795891,302.568573 80.471474,298.299042 
	C83.334618,294.973236 85.996506,291.363129 89.362144,288.638123 
	C90.627686,287.613464 94.380669,287.878723 95.678986,289.036682 
	C98.658447,291.694000 100.825989,295.261688 103.574501,298.746765 
z"/>
<path fill="#930030" opacity="1.000000" stroke="none" 
	d="
M238.984772,328.116425 
	C238.971329,330.406586 239.397186,332.398376 238.808319,334.022186 
	C238.325058,335.354706 236.513397,337.232727 235.508820,337.108246 
	C234.002731,336.921600 231.497665,335.219299 231.473297,334.116180 
	C231.190094,321.293793 231.190750,308.460602 231.473282,295.638123 
	C231.498077,294.512939 233.954941,292.662537 235.431915,292.498688 
	C239.381256,292.060516 243.891541,291.224304 247.284439,292.660065 
	C251.175201,294.306519 255.746933,297.659637 257.008026,301.312195 
	C258.388367,305.310150 256.325500,310.497650 255.759628,315.166260 
	C255.631317,316.224915 254.970718,317.691315 255.432907,318.275024 
	C259.348022,323.219666 257.185547,328.894714 257.375000,334.223999 
	C257.410461,335.221375 255.002396,337.252960 253.954468,337.109467 
	C252.541962,336.916046 250.748932,335.301544 250.224564,333.887177 
	C249.571304,332.125122 250.078796,329.944550 250.024216,327.946381 
	C249.886597,322.907654 248.141342,321.262360 243.595169,320.978394 
	C238.057358,320.632446 239.072083,324.442444 238.984772,328.116425 
M239.428146,301.200134 
	C239.281021,304.011414 238.908096,306.837677 239.093460,309.626862 
	C239.172028,310.809052 240.172668,312.544830 241.183548,312.945251 
	C245.899246,314.813293 249.980057,311.852539 250.055313,306.798920 
	C250.141983,300.978424 247.354767,299.248688 239.428146,301.200134 
z"/>
<path fill="#960031" opacity="1.000000" stroke="none" 
	d="
M337.001923,337.396484 
	C336.179077,337.396088 335.845825,337.395691 335.512573,337.395752 
	C323.413055,337.397766 323.286377,337.388000 324.218567,325.297424 
	C324.373932,323.282532 325.761108,320.944855 327.294891,319.535126 
	C331.335022,315.821747 335.922241,312.703491 339.960266,308.988098 
	C341.306580,307.749359 342.499634,305.256195 342.190002,303.637238 
	C341.924927,302.251190 339.365875,300.319794 337.904572,300.388885 
	C335.961243,300.480774 333.998444,302.137634 332.230347,303.386047 
	C330.565765,304.561340 329.286316,306.341156 327.533722,307.299744 
	C326.945251,307.621674 324.482605,306.220123 324.492859,305.634674 
	C324.534180,303.275696 324.547119,300.493103 325.760254,298.650116 
	C331.382690,290.108704 342.167053,289.801117 348.308350,297.861877 
	C351.474823,302.018036 351.246521,309.812439 347.227325,313.143585 
	C343.250854,316.439301 339.073242,319.499695 335.201660,322.910614 
	C333.843109,324.107513 333.131073,326.038269 332.123840,327.633942 
	C333.525635,328.232147 334.999878,329.445160 336.312897,329.290344 
	C338.506409,329.031830 341.979309,328.378754 342.445557,327.035248 
	C343.444336,324.156982 345.016083,322.792877 347.379547,323.804626 
	C348.801392,324.413300 350.111511,326.903564 350.239410,328.639099 
	C350.853699,336.976135 350.322266,337.387848 341.990448,337.396729 
	C340.490814,337.398346 338.991150,337.396759 337.001923,337.396484 
z"/>
<path fill="#970032" opacity="1.000000" stroke="none" 
	d="
M124.981392,328.907776 
	C124.066666,316.570526 129.182022,305.972290 132.329956,295.007019 
	C132.729706,293.614563 136.576523,292.581451 138.841309,292.552490 
	C140.679214,292.529022 143.775345,293.888580 144.195923,295.276428 
	C147.799377,307.167358 152.648026,318.868042 151.276886,331.753571 
	C150.988724,334.461578 151.331665,337.438904 147.334778,337.293304 
	C143.690933,337.160553 144.046295,334.339325 143.787704,331.835419 
	C143.482712,328.882202 145.324524,324.784302 139.723923,324.510468 
	C133.464951,324.204437 132.860809,324.683929 132.630386,331.372284 
	C132.551285,333.668152 133.608887,336.787598 129.793808,337.241058 
	C127.033348,337.569183 124.723351,337.031189 124.983711,333.380432 
	C125.078217,332.055359 124.987595,330.717133 124.981392,328.907776 
M142.030258,315.399475 
	C141.031906,311.473846 140.033554,307.548218 139.035202,303.622559 
	C138.491409,303.701843 137.947617,303.781128 137.403809,303.860413 
	C136.719299,306.023102 135.826782,308.146851 135.412598,310.360107 
	C135.046432,312.316803 135.213135,314.373260 135.144577,316.385651 
	C137.333893,316.269440 139.523209,316.153198 142.030258,315.399475 
z"/>
<path fill="#990032" opacity="1.000000" stroke="none" 
	d="
M296.474487,328.961365 
	C296.272614,322.922272 292.041962,324.840820 289.078888,324.603424 
	C285.828888,324.343109 285.278931,326.538025 285.319366,329.148621 
	C285.342529,330.645020 285.747223,332.381622 285.135895,333.579132 
	C284.379181,335.061523 282.755402,337.045135 281.491486,337.055786 
	C280.259949,337.066132 277.932373,334.846771 277.947968,333.630280 
	C278.030518,327.193970 278.182281,320.672424 279.312286,314.359863 
	C280.449463,308.007355 282.880646,301.896149 284.514435,295.619263 
	C285.470642,291.945679 288.200836,292.340302 290.827576,292.384918 
	C293.383698,292.428253 296.231171,291.720703 297.203217,295.476868 
	C300.271912,307.334808 305.336761,318.794403 304.006622,331.495941 
	C303.738464,334.056366 304.642181,337.149963 300.512817,337.291321 
	C296.103729,337.442261 296.539703,334.266998 296.513000,331.418640 
	C296.506744,330.753143 296.498169,330.087677 296.474487,328.961365 
M292.985840,307.661377 
	C292.465149,306.202698 291.944489,304.744019 291.423798,303.285339 
	C289.548950,305.590729 288.627930,307.837311 288.153839,310.174561 
	C287.752655,312.152252 287.036072,315.331940 287.945129,316.022003 
	C289.423615,317.144318 292.115265,316.668518 295.226379,316.952087 
	C294.382965,313.399780 293.787720,310.892792 292.985840,307.661377 
z"/>
<path fill="#9A0033" opacity="1.000000" stroke="none" 
	d="
M210.414505,243.465454 
	C200.579208,234.248154 194.103195,223.474884 191.256973,209.777893 
	C205.876816,222.245361 220.463593,222.569687 235.141159,209.536850 
	C235.388092,210.049850 235.635025,210.562836 235.881958,211.075836 
	C234.774200,214.295334 234.249008,217.893967 232.447525,220.661972 
	C227.399475,228.418320 221.867798,235.863129 216.431122,243.361404 
	C214.781754,245.636200 212.733932,246.099304 210.414505,243.465454 
z"/>
<path fill="#54001B" opacity="1.000000" stroke="none" 
	d="
M258.332581,96.025269 
	C254.606598,95.682671 251.271988,95.365913 247.937393,95.049156 
	C248.005188,94.491142 248.072983,93.933136 248.140778,93.375130 
	C252.396103,92.919479 256.579651,93.137283 260.804993,95.661514 
	C260.285431,95.956963 259.504730,96.004036 258.332581,96.025269 
z"/>
<path fill="#410015" opacity="1.000000" stroke="none" 
	d="
M175.463684,85.181076 
	C178.107208,83.345001 181.067398,82.035416 184.027603,80.725838 
	C184.319885,81.337280 184.612167,81.948715 184.904449,82.560158 
	C182.267410,83.943169 179.630356,85.326180 176.675156,86.750923 
	C176.164780,86.430962 175.972565,86.069267 175.463684,85.181076 
z"/>
<path fill="#410015" opacity="1.000000" stroke="none" 
	d="
M182.806732,249.973572 
	C180.741379,248.639069 178.927170,247.032379 177.112976,245.425690 
	C177.438477,244.960724 177.763977,244.495758 178.089478,244.030792 
	C180.044998,245.390472 182.000519,246.750153 184.066162,248.422012 
	C183.803482,249.056595 183.430695,249.378998 182.806732,249.973572 
z"/>
<path fill="#090003" opacity="1.000000" stroke="none" 
	d="
M239.734894,300.892303 
	C247.354767,299.248688 250.141983,300.978424 250.055313,306.798920 
	C249.980057,311.852539 245.899246,314.813293 241.183548,312.945251 
	C240.172668,312.544830 239.172028,310.809052 239.093460,309.626862 
	C238.908096,306.837677 239.281021,304.011414 239.734894,300.892303 
z"/>
<path fill="#170008" opacity="1.000000" stroke="none" 
	d="
M141.871399,315.718231 
	C139.523209,316.153198 137.333893,316.269440 135.144577,316.385651 
	C135.213135,314.373260 135.046432,312.316803 135.412598,310.360107 
	C135.826782,308.146851 136.719299,306.023102 137.403809,303.860413 
	C137.947617,303.781128 138.491409,303.701843 139.035202,303.622559 
	C140.033554,307.548218 141.031906,311.473846 141.871399,315.718231 
z"/>
<path fill="#170008" opacity="1.000000" stroke="none" 
	d="
M293.089172,308.023560 
	C293.787720,310.892792 294.382965,313.399780 295.226379,316.952087 
	C292.115265,316.668518 289.423615,317.144318 287.945129,316.022003 
	C287.036072,315.331940 287.752655,312.152252 288.153839,310.174561 
	C288.627930,307.837311 289.548950,305.590729 291.423798,303.285339 
	C291.944489,304.744019 292.465149,306.202698 293.089172,308.023560 
z"/>
</svg>